<svg width="60" height="61" viewBox="0 0 60 61" fill="none" xmlns="http://www.w3.org/2000/svg">
<path d="M8.00153 7.96294C7.75888 7.98655 7.52812 8.07934 7.33667 8.23027C7.14522 8.3812 7.00113 8.58393 6.92153 8.81436C6.84193 9.04478 6.83016 9.29322 6.88762 9.53014C6.94509 9.76706 7.06938 9.9825 7.2457 10.1509L14.7642 17.5898C9.40882 20.5151 5.00702 24.9274 2.15383 30.2797C2.05288 30.4659 2 30.6744 2 30.8863C2 31.0982 2.05288 31.3067 2.15383 31.493C7.41275 41.3581 17.9149 48.0813 30 48.0813C34.57 48.0813 38.91 47.1249 42.8291 45.3961L50.9443 53.4318C51.1843 53.6718 51.5099 53.8066 51.8493 53.8066C52.1887 53.8066 52.5143 53.6718 52.7543 53.4318C52.9943 53.1917 53.1292 52.8662 53.1292 52.5268C53.1292 52.1873 52.9943 51.8618 52.7543 51.6218L45.2557 44.2027C50.6041 41.2723 54.9957 36.8409 57.8462 31.493C57.9471 31.3067 58 31.0982 58 30.8863C58 30.6744 57.9471 30.4659 57.8462 30.2797C52.5872 20.4129 42.0857 13.7112 30 13.7112C25.4367 13.7112 21.1056 14.6755 17.1908 16.3963L9.0557 8.34085C8.92042 8.20167 8.75511 8.09526 8.5724 8.02976C8.38969 7.96426 8.19442 7.9414 8.00153 7.96294ZM30 16.2571C40.8862 16.2571 50.314 22.1867 55.2406 30.8962C52.4968 35.74 48.3538 39.7297 43.3463 42.3132L38.9704 37.9771C40.5146 36.0245 41.4567 33.5704 41.4567 30.8962C41.4567 24.584 36.3123 19.4395 30 19.4395C27.2843 19.4395 24.7864 20.3977 22.8197 21.9855L19.1599 18.3456C22.5033 17.0083 26.1604 16.2571 30 16.2571ZM16.6736 19.4793L21.0296 23.7955C19.4781 25.7505 18.5433 28.2152 18.5433 30.8962C18.5433 37.2086 23.6877 42.353 30 42.353C32.7258 42.353 35.2302 41.4054 37.2002 39.807L40.86 43.4469C37.5103 44.7912 33.8469 45.5354 30 45.5354C19.1207 45.5354 9.68841 39.5975 4.75944 30.8962C7.50477 26.0431 11.6594 22.0612 16.6736 19.4793ZM30 21.9855C34.9364 21.9855 38.9108 25.9599 38.9108 30.8962C38.9108 32.879 38.2675 34.7099 37.1803 36.187L24.6496 23.7756C26.1385 22.6576 27.9865 21.9855 30 21.9855ZM22.8396 25.6055L35.3703 37.997C33.8768 39.1273 32.0256 39.807 30 39.807C25.0636 39.807 21.0892 35.8326 21.0892 30.8962C21.0892 28.9036 21.7425 27.0865 22.8396 25.6055Z" fill="#463FB0"/>
</svg>
