<svg width="60" height="61" viewBox="0 0 60 61" fill="none" xmlns="http://www.w3.org/2000/svg">
<path d="M29.0808 5.9551C28.9534 5.95461 28.8271 5.97933 28.7093 6.02787C28.5915 6.0764 28.4844 6.14777 28.3943 6.23786C28.3043 6.32796 28.2329 6.435 28.1844 6.55282C28.1358 6.67063 28.1111 6.79688 28.1116 6.9243C28.1118 7.05124 28.1371 7.17688 28.186 7.29404C28.2348 7.4112 28.3063 7.51757 28.3964 7.60707C28.4864 7.69657 28.5932 7.76743 28.7106 7.81561C28.8281 7.86379 28.9538 7.88833 29.0808 7.88783H31.1549V12.0003C26.3818 12.9879 22.0157 15.522 18.7761 19.2824C18.6924 19.3789 18.6288 19.4911 18.5888 19.6123C18.5488 19.7336 18.5333 19.8616 18.5431 19.9889C18.5529 20.1163 18.5879 20.2404 18.646 20.3541C18.7041 20.4678 18.7842 20.5688 18.8816 20.6514C18.9781 20.7337 19.0898 20.7963 19.2104 20.8354C19.331 20.8746 19.4582 20.8896 19.5846 20.8797C19.711 20.8697 19.8343 20.8349 19.9472 20.7773C20.0602 20.7196 20.1607 20.6403 20.243 20.5439C24.1182 16.0458 29.7482 13.4673 35.6728 13.4673C46.9471 13.4673 56.0692 22.612 56.0692 33.9277C56.0692 45.2435 46.9471 54.3958 35.6728 54.3958C29.7482 54.3958 24.1182 51.8097 20.243 47.3116C20.0757 47.1179 19.8383 46.9985 19.583 46.9798C19.3277 46.961 19.0755 47.0444 18.8816 47.2117C18.7853 47.2941 18.7062 47.3948 18.6487 47.5078C18.5913 47.6208 18.5567 47.7441 18.5469 47.8705C18.5371 47.9969 18.5522 48.124 18.5916 48.2446C18.6309 48.3651 18.6936 48.4768 18.7761 48.5731C23.0164 53.495 29.1866 56.3266 35.6728 56.3266C47.994 56.3266 58 46.2836 58 33.9277C58 23.1237 50.3499 14.0925 40.1907 11.9946V7.88781H42.2648C42.5199 7.88681 42.7642 7.78492 42.9443 7.60438C43.1245 7.42384 43.2259 7.17934 43.2264 6.92427C43.2269 6.79749 43.2025 6.67185 43.1544 6.55453C43.1063 6.43721 43.0356 6.33051 42.9464 6.24051C42.8571 6.15051 42.7509 6.07898 42.634 6.03001C42.517 5.98103 42.3916 5.95557 42.2648 5.95508L29.0808 5.9551ZM33.0858 7.88783H38.2598V11.6873C37.4108 11.5888 36.5479 11.5364 35.6728 11.5364C34.8037 11.5364 33.9397 11.5876 33.0858 11.6873V7.88783ZM46.085 22.5181C45.9578 22.5181 45.8318 22.5433 45.7143 22.5921C45.5969 22.641 45.4902 22.7126 45.4005 22.8028L38.2485 29.9737C37.5067 29.4863 36.6216 29.2025 35.6728 29.2025C33.077 29.2025 30.9551 31.3287 30.9551 33.9278C30.9551 36.5268 33.0771 38.6606 35.6728 38.6606C38.2685 38.6606 40.3905 36.5268 40.3905 33.9278C40.3905 32.9754 40.1043 32.0866 39.6155 31.3426L46.7695 24.1642C46.8596 24.0745 46.9312 23.9678 46.9801 23.8504C47.0289 23.7329 47.054 23.6069 47.054 23.4797C47.054 23.3525 47.0289 23.2266 46.9801 23.1091C46.9312 22.9916 46.8596 22.885 46.7695 22.7953C46.5871 22.6158 46.3409 22.5161 46.085 22.5181ZM9.26894 26.046C9.14216 26.0455 9.01652 26.07 8.8992 26.1181C8.78188 26.1661 8.67518 26.2368 8.58518 26.3261C8.49518 26.4154 8.42365 26.5216 8.37468 26.6385C8.3257 26.7554 8.30024 26.8809 8.29975 27.0077C8.30024 27.1344 8.3257 27.2599 8.37467 27.3768C8.42365 27.4938 8.49518 27.5999 8.58517 27.6892C8.67517 27.7785 8.78188 27.8492 8.8992 27.8973C9.01652 27.9453 9.14216 27.9698 9.26894 27.9693H25.1116C25.2384 27.9698 25.364 27.9453 25.4814 27.8973C25.5987 27.8492 25.7054 27.7785 25.7954 27.6892C25.8854 27.5999 25.9569 27.4938 26.0059 27.3768C26.0549 27.2599 26.0803 27.1344 26.0808 27.0077C26.0803 26.8809 26.0549 26.7554 26.0059 26.6385C25.9569 26.5216 25.8854 26.4154 25.7954 26.3261C25.7054 26.2368 25.5987 26.1661 25.4814 26.1181C25.364 26.07 25.2384 26.0455 25.1116 26.046H9.26894ZM35.6728 31.1333C36.4085 31.1333 37.0737 31.4129 37.5697 31.8725C37.5914 31.9008 37.6147 31.9279 37.6395 31.9536C37.6652 31.9783 37.6923 32.0016 37.7206 32.0234C38.1798 32.52 38.4598 33.1873 38.4598 33.9278C38.4597 35.4867 37.2217 36.7279 35.6729 36.7279C34.124 36.7279 32.886 35.4867 32.886 33.9278C32.886 32.3689 34.1239 31.1333 35.6728 31.1333ZM2.9692 32.9661C2.84242 32.9656 2.71678 32.9901 2.59946 33.0382C2.48214 33.0862 2.37544 33.1569 2.28544 33.2462C2.19544 33.3355 2.12391 33.4417 2.07494 33.5586C2.02596 33.6755 2.0005 33.801 2.00001 33.9278C1.99951 34.0552 2.02424 34.1814 2.07277 34.2992C2.1213 34.4171 2.19267 34.5241 2.28276 34.6142C2.37286 34.7043 2.4799 34.7757 2.59772 34.8242C2.71553 34.8727 2.84179 34.8975 2.9692 34.897H18.8119C18.9393 34.8975 19.0656 34.8727 19.1834 34.8242C19.3012 34.7757 19.4082 34.7043 19.4983 34.6142C19.5884 34.5241 19.6598 34.4171 19.7083 34.2992C19.7568 34.1814 19.7816 34.0552 19.7811 33.9278C19.7806 33.801 19.7551 33.6755 19.7061 33.5586C19.6572 33.4417 19.5856 33.3355 19.4956 33.2462C19.4056 33.1569 19.2989 33.0862 19.1816 33.0382C19.0643 32.9901 18.9387 32.9656 18.8119 32.9661H2.9692ZM9.26894 39.8862C9.14152 39.8857 9.01527 39.9104 8.89746 39.959C8.77964 40.0075 8.6726 40.0789 8.58251 40.169C8.49241 40.2591 8.42104 40.3661 8.37251 40.4839C8.32398 40.6017 8.29925 40.728 8.29975 40.8554C8.30024 40.9822 8.3257 41.1076 8.37467 41.2246C8.42365 41.3415 8.49518 41.4477 8.58517 41.537C8.67517 41.6263 8.78188 41.697 8.8992 41.745C9.01652 41.7931 9.14216 41.8176 9.26894 41.8171H25.1116C25.2384 41.8176 25.364 41.7931 25.4814 41.745C25.5987 41.6969 25.7054 41.6263 25.7954 41.537C25.8854 41.4477 25.9569 41.3415 26.0059 41.2246C26.0549 41.1076 26.0803 40.9822 26.0808 40.8554C26.0813 40.728 26.0566 40.6017 26.0081 40.4839C25.9595 40.3661 25.8882 40.2591 25.7981 40.169C25.708 40.0789 25.6009 40.0075 25.4831 39.959C25.3653 39.9104 25.239 39.8857 25.1116 39.8862H9.26894Z" fill="#463FB0"/>
</svg>
