<svg width="24" height="25" viewBox="0 0 24 25" fill="none" xmlns="http://www.w3.org/2000/svg">
<g clip-path="url(#clip0_23_406)">
<path d="M12 2.80273C14.717 2.80273 15.056 2.81273 16.122 2.86273C17.187 2.91273 17.912 3.07973 18.55 3.32773C19.21 3.58173 19.766 3.92573 20.322 4.48073C20.8305 4.98063 21.224 5.58532 21.475 6.25273C21.722 6.88973 21.89 7.61573 21.94 8.68073C21.987 9.74673 22 10.0857 22 12.8027C22 15.5197 21.99 15.8587 21.94 16.9247C21.89 17.9897 21.722 18.7147 21.475 19.3527C21.2247 20.0205 20.8311 20.6254 20.322 21.1247C19.822 21.6331 19.2173 22.0265 18.55 22.2777C17.913 22.5247 17.187 22.6927 16.122 22.7427C15.056 22.7897 14.717 22.8027 12 22.8027C9.283 22.8027 8.944 22.7927 7.878 22.7427C6.813 22.6927 6.088 22.5247 5.45 22.2777C4.78233 22.0272 4.17753 21.6337 3.678 21.1247C3.16941 20.6249 2.77593 20.0202 2.525 19.3527C2.277 18.7157 2.11 17.9897 2.06 16.9247C2.013 15.8587 2 15.5197 2 12.8027C2 10.0857 2.01 9.74673 2.06 8.68073C2.11 7.61473 2.277 6.89073 2.525 6.25273C2.77524 5.58491 3.1688 4.98006 3.678 4.48073C4.17767 3.97197 4.78243 3.57846 5.45 3.32773C6.088 3.07973 6.812 2.91273 7.878 2.86273C8.944 2.81573 9.283 2.80273 12 2.80273ZM12 7.80273C10.6739 7.80273 9.40215 8.32952 8.46447 9.2672C7.52678 10.2049 7 11.4767 7 12.8027C7 14.1288 7.52678 15.4006 8.46447 16.3383C9.40215 17.276 10.6739 17.8027 12 17.8027C13.3261 17.8027 14.5979 17.276 15.5355 16.3383C16.4732 15.4006 17 14.1288 17 12.8027C17 11.4767 16.4732 10.2049 15.5355 9.2672C14.5979 8.32952 13.3261 7.80273 12 7.80273ZM18.5 7.55273C18.5 7.22121 18.3683 6.90327 18.1339 6.66885C17.8995 6.43443 17.5815 6.30273 17.25 6.30273C16.9185 6.30273 16.6005 6.43443 16.3661 6.66885C16.1317 6.90327 16 7.22121 16 7.55273C16 7.88425 16.1317 8.2022 16.3661 8.43662C16.6005 8.67104 16.9185 8.80273 17.25 8.80273C17.5815 8.80273 17.8995 8.67104 18.1339 8.43662C18.3683 8.2022 18.5 7.88425 18.5 7.55273ZM12 9.80273C12.7956 9.80273 13.5587 10.1188 14.1213 10.6814C14.6839 11.244 15 12.0071 15 12.8027C15 13.5984 14.6839 14.3614 14.1213 14.9241C13.5587 15.4867 12.7956 15.8027 12 15.8027C11.2044 15.8027 10.4413 15.4867 9.87868 14.9241C9.31607 14.3614 9 13.5984 9 12.8027C9 12.0071 9.31607 11.244 9.87868 10.6814C10.4413 10.1188 11.2044 9.80273 12 9.80273Z" fill="white"/>
</g>
<defs>
<clipPath id="clip0_23_406">
<rect width="24" height="24" fill="white" transform="translate(0 0.802734)"/>
</clipPath>
</defs>
</svg>
