<svg width="48" height="49" viewBox="0 0 48 49" fill="none" xmlns="http://www.w3.org/2000/svg">
<path d="M18.9975 26.9763C19.3511 26.9763 19.6038 26.7237 19.6038 26.37V23.591C19.6038 23.2373 19.3511 22.9847 18.9975 22.9847H13.3385V20.6605C13.3385 20.3573 13.1869 20.1047 12.8838 20.0037C12.6311 19.9026 12.2775 19.9531 12.0753 20.1552L7.32587 24.45C7.17429 24.6015 7.07324 24.8037 7.07324 25.0058C7.07324 25.2079 7.17429 25.41 7.27535 25.511C7.27535 25.511 7.27535 25.511 7.32587 25.5615L12.0753 29.8563C12.2775 30.0584 12.6311 30.1089 12.8838 30.0079C13.1364 29.9068 13.3385 29.6037 13.3385 29.351V27.0268L18.9975 26.9763Z" fill="#463FB0"/>
<path d="M35.9747 20.1045C35.7726 19.9023 35.4189 19.8518 35.1663 19.9529C34.9137 20.0539 34.7116 20.3571 34.7116 20.6097V22.9339H29.0526C28.6989 22.9339 28.4463 23.1866 28.4463 23.5402V26.3192C28.4463 26.6729 28.6989 26.9255 29.0526 26.9255H34.7116V29.2497C34.7116 29.4518 34.8126 29.6539 34.9137 29.755C34.9642 29.8055 35.0652 29.856 35.1158 29.9066C35.3684 30.0076 35.7221 29.9571 35.9242 29.755L40.6737 25.4602C40.8252 25.3087 40.9263 25.1066 40.9263 24.9045C40.9263 24.7023 40.8252 24.5002 40.6737 24.3487L35.9747 20.1045Z" fill="#463FB0"/>
<path d="M28.2946 35.6657H25.9704V30.0067C25.9704 29.653 25.7178 29.4004 25.3641 29.4004H22.5852C22.2315 29.4004 21.9788 29.653 21.9788 30.0067V35.6657H19.6546C19.3515 35.6657 19.0988 35.8172 18.9978 36.1204C18.8967 36.373 18.9473 36.7267 19.1494 36.9288L23.4441 41.6783C23.5957 41.8299 23.7978 41.9309 23.9999 41.9309C24.202 41.9309 24.4041 41.8299 24.5052 41.7288C24.5052 41.7288 24.5052 41.7288 24.5557 41.6783L28.8504 36.9288C29.0525 36.7267 29.1031 36.373 29.002 36.1204C28.8504 35.8172 28.5978 35.6657 28.2946 35.6657Z" fill="#463FB0"/>
<path d="M19.7052 14.244H22.0294V19.903C22.0294 20.2567 22.282 20.5093 22.6357 20.5093H25.4146C25.7683 20.5093 26.021 20.2567 26.021 19.903V14.244H28.3452C28.5473 14.244 28.7494 14.143 28.8504 14.0419C28.901 13.9914 28.9515 13.8903 29.002 13.8398C29.1031 13.5872 29.0525 13.2335 28.8504 13.0314L24.5557 8.28193C24.4041 8.13035 24.202 8.0293 23.9999 8.0293C23.7978 8.0293 23.5957 8.13035 23.4441 8.28193L19.1494 13.0314C18.9473 13.2335 18.8967 13.5872 18.9978 13.8398C19.1494 14.0925 19.402 14.244 19.7052 14.244Z" fill="#463FB0"/>
<path d="M39.0063 0.955078H8.99368C4.0421 0.955078 0 4.99718 0 9.94876V39.9614C0 44.913 4.0421 48.9551 8.99368 48.9551H39.0063C43.9579 48.9551 48 44.913 48 39.9614V9.94876C48 4.99718 43.9579 0.955078 39.0063 0.955078ZM44.16 39.9614C44.16 42.7909 41.8358 45.1151 39.0063 45.1151H8.99368C6.16421 45.1151 3.84 42.7909 3.84 39.9614V9.94876C3.84 7.11929 6.16421 4.79508 8.99368 4.79508H39.0063C41.8358 4.79508 44.16 7.11929 44.16 9.94876V39.9614Z" fill="#463FB0"/>
</svg>
