<svg width="44" height="56" viewBox="0 0 44 56" fill="none" xmlns="http://www.w3.org/2000/svg">
<path d="M21.7829 4.21808C22.4488 4.35157 23.1203 4.47949 23.7863 4.61297C25.3812 4.93 26.9761 5.24146 28.571 5.55848C30.5073 5.94225 32.4492 6.32045 34.3855 6.70422C36.0587 7.03236 37.7376 7.36607 39.4108 7.69422C40.2223 7.85551 41.0337 8.03905 41.8452 8.17254C41.8564 8.17254 41.8676 8.1781 41.8788 8.1781C41.4702 7.64416 41.0561 7.10467 40.6476 6.57073C40.6476 7.71647 40.6476 8.8622 40.6476 10.0135C40.6476 12.6609 40.6476 15.3028 40.6476 17.9502C40.6476 20.8924 40.6476 23.8346 40.6476 26.7824C40.6476 28.8458 40.6476 30.9093 40.6476 32.9782C40.6476 33.4733 40.67 33.9738 40.6252 34.4633C40.614 34.5522 40.6084 34.6412 40.5916 34.7302C40.614 34.5801 40.6308 34.4354 40.6532 34.2853C40.5189 35.2753 40.2111 36.2319 39.825 37.1496C39.8809 37.0161 39.9369 36.8826 39.9928 36.7492C39.6235 37.6112 39.1758 38.44 38.6721 39.2353C38.3644 39.7192 38.0342 40.1864 37.6816 40.6424C37.6592 40.6702 37.6424 40.6925 37.6201 40.7203C37.4746 40.9094 37.8943 40.3755 37.7768 40.5201C37.732 40.5757 37.6872 40.6369 37.6368 40.6925C37.5305 40.826 37.4242 40.9539 37.3179 41.0874C37.1052 41.3432 36.8814 41.5991 36.6575 41.8493C35.611 43.0062 34.4638 44.0685 33.2494 45.0585C33.0872 45.192 32.9249 45.3199 32.757 45.4534C32.673 45.5201 32.5891 45.5869 32.5051 45.6481C32.41 45.7259 32.2253 45.8594 32.6451 45.5424C32.5891 45.5869 32.5275 45.6314 32.4716 45.6759C32.091 45.9651 31.7049 46.2432 31.3132 46.5157C30.4793 47.1053 29.6231 47.6614 28.7501 48.1898C26.3829 49.6359 23.9038 50.8929 21.3743 52.0219C21.8052 51.9663 22.2361 51.9107 22.667 51.8551C22.1858 51.6826 21.7101 51.488 21.2344 51.2933C21.3687 51.3489 21.503 51.4046 21.6373 51.4602C19.2981 50.4813 17.0317 49.3189 14.8716 47.9896C14.1608 47.5558 13.4613 47.0997 12.7786 46.6214C12.4316 46.3822 12.0903 46.132 11.7489 45.8817C11.6649 45.8205 11.5866 45.7593 11.5027 45.6981C11.4523 45.6592 11.4075 45.6258 11.3572 45.5869C11.7937 45.9206 11.6426 45.8094 11.553 45.7371C11.3683 45.5925 11.1781 45.4478 10.999 45.2977C9.60555 44.1742 8.29044 42.945 7.12084 41.5879C6.95295 41.3933 6.79626 41.2042 6.63397 41.004C6.53324 40.8816 6.23664 40.4923 6.62278 40.9928C6.54443 40.8927 6.46608 40.7926 6.39333 40.6925C6.09114 40.2865 5.80014 39.8693 5.52592 39.4466C4.9775 38.5957 4.50182 37.7002 4.10449 36.7658C4.16045 36.8993 4.21642 37.0328 4.27238 37.1663C3.83588 36.1429 3.5057 35.0806 3.29305 33.9849C3.31543 34.1351 3.33222 34.2797 3.3546 34.4299C3.3546 33.5122 3.3546 32.5889 3.3546 31.6712C3.3546 29.4632 3.3546 27.2551 3.3546 25.0471C3.3546 22.3774 3.3546 19.7078 3.3546 17.0325C3.3546 14.7244 3.3546 12.4162 3.3546 10.1025C3.3546 8.979 3.38818 7.85551 3.3546 6.73759C3.3546 6.7209 3.3546 6.70422 3.3546 6.68753C2.94608 7.22147 2.53196 7.76096 2.12344 8.2949C2.80058 8.16141 3.47772 8.02793 4.16045 7.88888C5.80014 7.5663 7.43982 7.23815 9.0795 6.91557C11.055 6.52624 13.0304 6.13135 15.0059 5.74202C16.7127 5.40275 18.4251 5.06348 20.132 4.72421C20.9658 4.55735 21.8108 4.41831 22.6391 4.22921C22.6503 4.22921 22.6615 4.22364 22.6726 4.22364C23.5345 4.05123 24.1109 2.98336 23.8478 2.17133C23.5512 1.2592 22.7062 0.825373 21.7829 1.00335C21.1057 1.13684 20.4286 1.27032 19.7458 1.40936C18.1062 1.73195 16.4665 2.0601 14.8268 2.38268C12.8513 2.77201 10.8759 3.1669 8.90042 3.55623C7.19359 3.8955 5.48115 4.23477 3.77432 4.57404C2.94608 4.74089 2.08986 4.86325 1.26723 5.06904C1.25603 5.0746 1.24484 5.0746 1.23365 5.0746C0.517336 5.21365 0.00248719 5.9923 0.00248719 6.68197C0.00248719 7.4495 0.00248719 8.21703 0.00248719 8.98456C0.00248719 10.8756 0.00248719 12.7666 0.00248719 14.6576C0.00248719 17.0492 0.00248719 19.4352 0.00248719 21.8268C0.00248719 24.1238 0.00248719 26.4264 0.00248719 28.7235C0.00248719 30.2808 0.00248719 31.8436 0.00248719 33.4009C0.00248719 33.718 -0.00310899 34.0406 0.00248719 34.3576C0.00808338 34.7858 0.131199 35.2308 0.237527 35.6479C0.405413 36.332 0.623664 36.9994 0.881088 37.6557C2.00592 40.4978 3.76313 43.0062 5.90647 45.1864C7.87073 47.1943 10.1372 48.924 12.5044 50.4312C14.3567 51.6159 16.2986 52.6671 18.2964 53.5959C19.4101 54.1132 20.5405 54.6304 21.6989 55.0309C22.4208 55.2811 23.1147 54.8751 23.7639 54.5804C24.788 54.1132 25.8009 53.6237 26.8026 53.1065C28.5598 52.1999 30.2779 51.2099 31.9343 50.1198C34.503 48.4234 36.9653 46.4823 39.0359 44.1964C40.4238 42.6614 41.6885 40.9595 42.5895 39.0962C43.1491 37.945 43.6248 36.7214 43.843 35.4588C43.927 34.9583 44.0053 34.4521 43.9997 33.946C43.9997 33.0227 43.9997 32.0995 43.9997 31.1762C43.9997 29.1906 43.9997 27.2106 43.9997 25.2251C43.9997 22.8168 43.9997 20.4085 43.9997 18.0058C43.9997 15.7867 43.9997 13.5619 43.9997 11.3428C43.9997 9.94676 43.9997 8.55074 43.9997 7.14916C43.9997 6.9545 43.9997 6.7654 43.9997 6.57073C43.9997 5.88107 43.4849 5.10241 42.7686 4.96337C42.1026 4.82988 41.4311 4.70196 40.7651 4.56848C39.1702 4.25145 37.5753 3.93999 35.9804 3.62297C34.0441 3.2392 32.1022 2.861 30.1659 2.47723C28.4983 2.14909 26.8194 1.82094 25.1462 1.48723C24.3347 1.32594 23.5233 1.15908 22.7118 1.00891C22.7006 1.00891 22.6894 1.00335 22.6782 1.00335C22.2305 0.914363 21.7884 0.93661 21.3855 1.17021C21.0386 1.37043 20.7028 1.77088 20.6132 2.16577C20.4174 2.99448 20.8595 4.04011 21.7829 4.21808Z" fill="#463FB0"/>
<path d="M10.4194 26.4765C11.2028 27.2551 11.9919 28.0394 12.7754 28.818C14.0345 30.0694 15.2992 31.3264 16.5584 32.5778C16.8494 32.867 17.1348 33.1507 17.4258 33.4399C18.0693 34.0795 19.155 34.0795 19.7986 33.4399C20.2519 32.9894 20.7107 32.5333 21.164 32.0828C22.2665 30.9871 23.3633 29.897 24.4658 28.8013C25.7921 27.4832 27.1184 26.165 28.4391 24.8524C29.5919 23.7067 30.7447 22.561 31.8975 21.4152C32.4571 20.8591 33.028 20.314 33.5764 19.7467C33.582 19.7356 33.5932 19.73 33.5988 19.7244C34.2199 19.1071 34.2647 17.9725 33.5988 17.3662C32.9272 16.7544 31.8863 16.7044 31.226 17.3662C30.7727 17.8167 30.3138 18.2728 29.8605 18.7233C28.7581 19.819 27.6612 20.9091 26.5588 22.0048C25.2325 23.3229 23.9062 24.6411 22.5855 25.9537C21.4327 27.0994 20.2798 28.2452 19.127 29.3909C18.5674 29.9471 17.991 30.4866 17.4482 31.0594C17.4426 31.0706 17.4314 31.0761 17.4258 31.0817C18.2148 31.0817 19.0095 31.0817 19.7986 31.0817C19.0151 30.303 18.226 29.5188 17.4426 28.7402C16.1834 27.4887 14.9187 26.2318 13.6595 24.9804C13.3685 24.6911 13.0831 24.4075 12.7921 24.1183C12.171 23.5009 11.0293 23.4564 10.4194 24.1183C9.80378 24.7801 9.75341 25.8146 10.4194 26.4765Z" fill="#463FB0"/>
</svg>
