<svg width="24" height="25" viewBox="0 0 24 25" fill="none" xmlns="http://www.w3.org/2000/svg">
<g clip-path="url(#clip0_23_427)">
<path d="M3 13.9547H9V11.9547H3V2.8007C3.00001 2.71381 3.02267 2.62843 3.06573 2.55297C3.1088 2.4775 3.17078 2.41456 3.24558 2.37035C3.32037 2.32614 3.4054 2.30218 3.49227 2.30084C3.57915 2.2995 3.66487 2.32082 3.741 2.3627L22.203 12.5167C22.2814 12.5599 22.3468 12.6233 22.3923 12.7003C22.4378 12.7774 22.4618 12.8652 22.4618 12.9547C22.4618 13.0442 22.4378 13.132 22.3923 13.2091C22.3468 13.2861 22.2814 13.3495 22.203 13.3927L3.741 23.5467C3.66487 23.5886 3.57915 23.6099 3.49227 23.6085C3.4054 23.6072 3.32037 23.5832 3.24558 23.539C3.17078 23.4948 3.1088 23.4319 3.06573 23.3564C3.02267 23.281 3.00001 23.1956 3 23.1087V13.9547Z" fill="white"/>
</g>
<defs>
<clipPath id="clip0_23_427">
<rect width="24" height="24" fill="white" transform="translate(0 0.955078)"/>
</clipPath>
</defs>
</svg>
