<svg width="24" height="25" viewBox="0 0 24 25" fill="none" xmlns="http://www.w3.org/2000/svg">
<g clip-path="url(#clip0_23_408)">
<path d="M22.1621 6.45866C21.3986 6.79635 20.589 7.01813 19.7601 7.11666C20.6338 6.59409 21.2878 5.77167 21.6001 4.80266C20.7801 5.29066 19.8811 5.63266 18.9441 5.81766C18.3147 5.14424 17.4804 4.69762 16.571 4.54725C15.6616 4.39687 14.728 4.55115 13.9153 4.98611C13.1026 5.42108 12.4564 6.11234 12.0772 6.95245C11.6979 7.79256 11.6068 8.73444 11.8181 9.63166C10.1552 9.54831 8.52839 9.11618 7.04334 8.36332C5.5583 7.61047 4.24818 6.55371 3.19805 5.26166C2.82634 5.90011 2.63101 6.62589 2.63205 7.36466C2.63205 8.81466 3.37005 10.0957 4.49205 10.8457C3.82806 10.8248 3.17869 10.6454 2.59805 10.3227V10.3747C2.59825 11.3404 2.93242 12.2763 3.5439 13.0237C4.15538 13.7712 5.00654 14.2841 5.95305 14.4757C5.33667 14.6427 4.69036 14.6673 4.06305 14.5477C4.32992 15.3789 4.85006 16.1059 5.55065 16.6268C6.25123 17.1477 7.09718 17.4365 7.97005 17.4527C7.10253 18.134 6.10923 18.6376 5.04693 18.9348C3.98464 19.232 2.87418 19.3169 1.77905 19.1847C3.69075 20.4141 5.91615 21.0668 8.18905 21.0647C15.8821 21.0647 20.0891 14.6917 20.0891 9.16466C20.0891 8.98466 20.0841 8.80266 20.0761 8.62466C20.8949 8.03283 21.6017 7.29968 22.1631 6.45966L22.1621 6.45866Z" fill="white"/>
</g>
<defs>
<clipPath id="clip0_23_408">
<rect width="24" height="24" fill="white" transform="translate(0 0.802734)"/>
</clipPath>
</defs>
</svg>
