<svg width="24" height="25" viewBox="0 0 24 25" fill="none" xmlns="http://www.w3.org/2000/svg">
<g clip-path="url(#clip0_23_410)">
<path d="M21.543 7.30073C22 9.08273 22 12.8027 22 12.8027C22 12.8027 22 16.5227 21.543 18.3047C21.289 19.2897 20.546 20.0647 19.605 20.3267C17.896 20.8027 12 20.8027 12 20.8027C12 20.8027 6.107 20.8027 4.395 20.3267C3.45 20.0607 2.708 19.2867 2.457 18.3047C2 16.5227 2 12.8027 2 12.8027C2 12.8027 2 9.08273 2.457 7.30073C2.711 6.31573 3.454 5.54073 4.395 5.27873C6.107 4.80273 12 4.80273 12 4.80273C12 4.80273 17.896 4.80273 19.605 5.27873C20.55 5.54473 21.292 6.31873 21.543 7.30073ZM10 16.3027L16 12.8027L10 9.30273V16.3027Z" fill="white"/>
</g>
<defs>
<clipPath id="clip0_23_410">
<rect width="24" height="24" fill="white" transform="translate(0 0.802734)"/>
</clipPath>
</defs>
</svg>
